<?xml version="1.0" encoding="utf-8"?>
<!-- Generator: Adobe Illustrator 21.1.0, SVG Export Plug-In . SVG Version: 6.00 Build 0)  -->
<svg version="1.1" id="Layer_1" xmlns="http://www.w3.org/2000/svg" xmlns:xlink="http://www.w3.org/1999/xlink" x="0px" y="0px"
	 viewBox="0 0 1220 212" style="enable-background:new 0 0 1220 212;" xml:space="preserve">
<style type="text/css">
	.st0{fill:#0E334A;}
	.st1{fill:#174E70;}
	.st2{fill:#1F6694;}
	.st3{fill:#4E84A7;}
	.st4{fill:#78A2BD;}
	.st5{fill:#A5C1D3;}
	.st6{fill:#D1DFE9;}
	.st7{fill:#3B97D2;}
	.st8{fill:url(#SVGID_1_);}
</style>
<g>
	<path class="st0" d="M820.4,129.5c0,0-4.5-45.4,0-47.7c3.5-1.8,50.2,0,50.2,0L820.4,129.5z"/>
	<path class="st1" d="M902.2,78.9c0,0-23.4-26.1-33.6-30.2c-2.6-1-8.5-1.1-11.1,0c-9.8,4.1-29.1,30.2-29.1,30.2H902.2z"/>
	<path class="st2" d="M918.9,48.8c-4.2-4.2-43.2,0-43.2,0l43.2,40.9C918.9,89.6,920.9,50.8,918.9,48.8z"/>
	<path class="st3" d="M922.1,122.3V57.1c0,0,34.2,23.9,34.2,30.2C956.3,89.8,922.1,122.3,922.1,122.3z"/>
	<path class="st4" d="M953.9,94.9l-46.2,44.8c0,0,43.3,4.8,46.2,0C956.3,135.6,953.9,94.9,953.9,94.9z"/>
	<path class="st5" d="M876.3,144h73.4c0,0-27.5,33.1-36.7,33.1C910.3,177.1,876.3,144,876.3,144z"/>
	<path class="st6" d="M859.8,132.9c0,0-10.5,31.8-2.8,39.2c8,7.7,45.2,0,45.2,0L859.8,132.9z"/>
</g>
<g>
	<g>
		<g>
			<path class="st7" d="M494.2,45.7l42.6,51.1l42.5-51.1h22.3v129.5h-25V84.3h-0.7l-37.4,45.6h-3.5l-40.7-45.6"/>
		</g>
		<path class="st7" d="M494.2,45.7v80.6c0,17.6-4.6,30.7-13.9,39.4s-23.2,13-41.8,13c-18.9,0-33-4.3-42.3-13s-13.9-21.8-13.9-39.4
			V45.7h27.5v76.2c0,10.7,2.4,18.7,7.1,24.1c4.7,5.4,11.8,8.1,21.1,8.1c9.4,0,16.6-2.7,21.4-8.1c4.8-5.4,7.3-13.4,7.3-24.1V45.7
			H494.2z"/>
	</g>
	<path class="st7" d="M294.8,175.2V45.7h80.4V69h-52.7v26.6h52.7v23.5h-52.7v32.5h52.7v23.5H294.8z"/>
	<path class="st7" d="M174.2,175.2V45.7h35.3c13.9,0,24.9,1,32.9,2.9c8,1.9,15.1,5.2,21.1,9.7c7.8,5.8,13.8,13.2,17.8,22.1
		c4,8.9,6.1,19,6.1,30.3c0,11.5-2.1,21.7-6.2,30.6c-4.1,8.9-10.2,16.2-18.1,22c-5.9,4.2-12.5,7.3-19.7,9.2
		c-7.2,1.9-17.8,2.8-31.7,2.8h-9.8H174.2z M201.8,151.8h15.4c14.5,0,25.1-3.3,31.7-9.9c6.6-6.6,9.9-17.1,9.9-31.4
		c0-14.3-3.3-24.7-9.9-31.4c-6.6-6.6-17.2-9.9-31.7-9.9h-15.4V151.8z"/>
	<path class="st7" d="M167.3,110.7c0,9.3-1.7,18-5.2,26.3c-3.4,8.3-8.4,15.5-14.9,21.8c-6.7,6.4-14.3,11.4-22.7,14.8
		c-8.4,3.4-17.2,5.1-26.2,5.1c-7.9,0-15.6-1.3-23.2-4c-7.6-2.7-14.5-6.5-20.8-11.5c-8.1-6.5-14.4-14.2-18.7-23.3S29,121.1,29,110.7
		c0-9.3,1.7-18.1,5.1-26.2c3.4-8.2,8.4-15.4,15-21.8c6.5-6.3,14-11.2,22.6-14.7c8.6-3.5,17.4-5.2,26.5-5.2c9,0,17.8,1.7,26.3,5.2
		c8.5,3.5,16.1,8.4,22.6,14.7c6.5,6.4,11.5,13.6,14.9,21.8C165.6,92.7,167.3,101.4,167.3,110.7z M98.3,153.9
		c11.7,0,21.4-4.1,29.1-12.3c7.6-8.2,11.5-18.5,11.5-30.9c0-12.3-3.9-22.6-11.6-31c-7.7-8.4-17.4-12.6-28.9-12.6
		c-11.7,0-21.5,4.2-29.2,12.5c-7.7,8.3-11.6,18.7-11.6,31c0,12.5,3.8,22.8,11.4,31C76.5,149.9,86.3,153.9,98.3,153.9z"/>
	<linearGradient id="SVGID_1_" gradientUnits="userSpaceOnUse" x1="494.2289" y1="72.2929" x2="507.2942" y2="72.2929">
		<stop  offset="0" style="stop-color:#185273"/>
		<stop  offset="1" style="stop-color:#3B97D2;stop-opacity:0"/>
	</linearGradient>
	<polygon class="st8" points="507.3,98.9 494.2,84.3 494.2,45.7 507.3,61.4 	"/>
	<g>
		<path class="st7" d="M608.8,52.2c0-3,0.7-5.8,2.2-8.4c1.5-2.6,3.5-4.6,6.2-6.2c2.6-1.5,5.5-2.3,8.5-2.3c3.1,0,5.9,0.8,8.5,2.3
			c2.6,1.5,4.6,3.6,6.1,6.2c1.5,2.6,2.2,5.4,2.2,8.4c0,3.1-0.8,5.9-2.3,8.5c-1.5,2.6-3.6,4.6-6.2,6.1c-2.6,1.5-5.4,2.2-8.4,2.2
			c-3,0-5.8-0.8-8.5-2.3c-2.6-1.5-4.7-3.6-6.2-6.1C609.5,58.1,608.8,55.3,608.8,52.2z M611.9,52.2c0,2.5,0.6,4.8,1.9,6.9
			c1.2,2.1,2.9,3.8,5,5c2.1,1.2,4.4,1.8,6.8,1.8c2.5,0,4.8-0.6,6.9-1.9c2.1-1.2,3.8-2.9,5-5c1.2-2.1,1.8-4.4,1.8-6.9
			c0-2.4-0.6-4.7-1.9-6.9c-1.2-2.1-2.9-3.8-5-5s-4.4-1.8-6.9-1.8c-2.4,0-4.7,0.6-6.8,1.8c-2.1,1.2-3.8,2.9-5,5
			C612.5,47.5,611.9,49.8,611.9,52.2z M627.2,43.4c1.7,0,3,0.5,4,1.4c1,0.9,1.5,2.1,1.5,3.5c0,1.4-0.4,2.6-1.3,3.5s-2.1,1.5-3.6,1.6
			v0.1c0.6,0.2,1.2,0.6,1.8,1.1c0.5,0.5,1.3,1.6,2.2,3.2l2.1,3.6h-4.1l-0.8-1.6c-0.7-1.5-1.4-2.7-2-3.6c-0.6-0.9-1.2-1.5-1.7-1.8
			s-1.1-0.5-2-0.5h-1.5v7.5h-3.3v-18H627.2z M626,51.2c1.1,0,1.9-0.2,2.5-0.7s0.9-1.1,0.9-1.9c0-0.8-0.3-1.5-0.9-1.9
			s-1.4-0.7-2.4-0.7h-4.1v5.1H626z"/>
	</g>
</g>
<path class="st2" d="M1083.6,177.5V48h80.4v23.3h-52.7V98h52.7v23.5h-52.7v32.5h52.7v23.5H1083.6z"/>
<path class="st2" d="M962.9,177.5V48h35.3c13.9,0,24.9,1,32.9,2.9c8,1.9,15.1,5.2,21.1,9.7c7.8,5.8,13.8,13.2,17.8,22.1
	c4,8.9,6.1,19,6.1,30.3c0,11.5-2.1,21.7-6.2,30.6c-4.1,8.9-10.2,16.2-18.1,22c-5.9,4.2-12.5,7.3-19.7,9.2
	c-7.2,1.9-17.8,2.8-31.7,2.8h-9.8H962.9z M990.6,154.1h15.4c14.5,0,25.1-3.3,31.7-9.9c6.6-6.6,9.9-17.1,9.9-31.4
	c0-14.3-3.3-24.7-9.9-31.4c-6.6-6.6-17.2-9.9-31.7-9.9h-15.4V154.1z"/>
<g>
	<path class="st2" d="M798.4,142.5c-7.3,7.9-16.7,11.9-27.9,11.9c-11.5,0-20.9-3.9-28.2-11.8c-7.3-7.9-11-17.8-11-29.8
		c0-11.8,3.7-21.8,11.1-29.8c7.4-8,16.8-12,28.1-12c11.1,0,20.4,4,27.8,12.1c0.3,0.3,0.5,0.7,0.8,1L817,66.2
		c-6.2-5.8-13.2-10.4-21.2-13.6c-8.2-3.3-16.6-5-25.3-5c-8.7,0-17.2,1.7-25.5,5c-8.2,3.3-15.5,8-21.7,14.1
		c-6.3,6.1-11.2,13.1-14.5,21c-3.3,7.9-4.9,16.3-4.9,25.2c0,10,2.1,19.3,6.2,28c4.2,8.7,10.2,16.1,18,22.4c6.1,4.8,12.7,8.5,20,11.1
		c7.3,2.6,14.7,3.9,22.3,3.9c8.7,0,17.1-1.6,25.2-4.9c7.9-3.2,15-7.8,21.3-13.7l-17.8-17.8C798.9,141.9,798.6,142.2,798.4,142.5z"/>
</g>
</svg>
